<svg width="20.000000" height="20.000000" viewBox="0 0 20 20" fill="none" xmlns="http://www.w3.org/2000/svg" xmlns:xlink="http://www.w3.org/1999/xlink">
	<path id="Union" d="M18.333 10C18.333 14.6016 14.6025 18.332 10 18.332C5.39746 18.332 1.66699 14.6016 1.66699 10C1.66699 5.39844 5.39746 1.66797 10 1.66797C14.6025 1.66797 18.333 5.39844 18.333 10ZM20 10C20 15.5234 15.5225 20 10 20C4.47754 20 0 15.5234 0 10C0 4.47656 4.47754 0 10 0C15.5225 0 20 4.47656 20 10ZM6.73438 7.92578C7.38477 7.92578 7.91211 7.39453 7.91211 6.74219C7.91211 6.08594 7.38477 5.55469 6.73438 5.55469C6.08301 5.55469 5.55566 6.08594 5.55566 6.74219C5.55566 7.39453 6.08301 7.92578 6.73438 7.92578ZM14.4443 6.74219C14.4443 7.39453 13.9189 7.92578 13.2705 7.92578C12.6211 7.92578 12.0957 7.39453 12.0957 6.74219C12.0957 6.08594 12.6211 5.55469 13.2705 5.55469C13.9189 5.55469 14.4443 6.08594 14.4443 6.74219ZM6.07715 11.7812C5.61719 11.7852 5.24414 12.1562 5.24512 12.6172C5.24609 13.0781 5.61914 13.4492 6.08008 13.4492L13.9229 13.4375C14.3828 13.4336 14.7559 13.0625 14.7549 12.6016C14.7539 12.1406 14.3799 11.7695 13.9199 11.7695L6.07715 11.7812Z" fill-rule="evenodd" fill="#5E6071"/>
</svg>
